<mxfile host="app.diagrams.net" agent="Mozilla/5.0 (Windows NT 10.0; Win64; x64) AppleWebKit/537.36 (KHTML, like Gecko) Chrome/130.0.0.0 Safari/537.36 Edg/130.0.0.0" version="24.8.6">
  <diagram name="Страница — 3" id="hSJmF1-Jjg3XGRygfN6d">
    <mxGraphModel dx="232" dy="-222" grid="1" gridSize="10" guides="1" tooltips="1" connect="1" arrows="1" fold="1" page="1" pageScale="1" pageWidth="827" pageHeight="1169" math="0" shadow="0">
      <root>
        <mxCell id="0" />
        <mxCell id="1" parent="0" />
        <mxCell id="nKVaXOCoi4U3utTOkRe5-1" value="Сервис по продаже фермерской продукции" style="shape=umlFrame;whiteSpace=wrap;html=1;pointerEvents=0;width=170;height=30;" parent="1" vertex="1">
          <mxGeometry x="976.88" y="1200" width="650" height="1450" as="geometry" />
        </mxCell>
        <mxCell id="nKVaXOCoi4U3utTOkRe5-2" value="Изучить фермерскую продукцию" style="ellipse;whiteSpace=wrap;html=1;" parent="1" vertex="1">
          <mxGeometry x="1001.88" y="1330" width="125" height="70" as="geometry" />
        </mxCell>
        <mxCell id="nKVaXOCoi4U3utTOkRe5-3" value="Сделать заказ" style="ellipse;whiteSpace=wrap;html=1;" parent="1" vertex="1">
          <mxGeometry x="1001.88" y="1720" width="125" height="70" as="geometry" />
        </mxCell>
        <mxCell id="nKVaXOCoi4U3utTOkRe5-4" value="Добавить товар&lt;div&gt;из меню отложенное&lt;/div&gt;" style="ellipse;whiteSpace=wrap;html=1;" parent="1" vertex="1">
          <mxGeometry x="1216.88" y="1540" width="140" height="70" as="geometry" />
        </mxCell>
        <mxCell id="nKVaXOCoi4U3utTOkRe5-5" value="&quot;extend&quot;" style="html=1;verticalAlign=bottom;endArrow=open;dashed=1;endSize=8;curved=0;rounded=0;exitX=0;exitY=0.5;exitDx=0;exitDy=0;entryX=0.5;entryY=0;entryDx=0;entryDy=0;" parent="1" source="nKVaXOCoi4U3utTOkRe5-4" target="nKVaXOCoi4U3utTOkRe5-3" edge="1">
          <mxGeometry x="-0.0151" y="-5" relative="1" as="geometry">
            <mxPoint x="1479.38" y="1810" as="sourcePoint" />
            <mxPoint x="1376.88" y="1830" as="targetPoint" />
            <mxPoint y="1" as="offset" />
          </mxGeometry>
        </mxCell>
        <mxCell id="nKVaXOCoi4U3utTOkRe5-6" value="&lt;span style=&quot;font-style: normal;&quot;&gt;Выбрать способ&lt;/span&gt;&lt;div&gt;&lt;span style=&quot;font-style: normal;&quot;&gt;оплаты&lt;/span&gt;&lt;/div&gt;" style="ellipse;whiteSpace=wrap;html=1;fontStyle=2" parent="1" vertex="1">
          <mxGeometry x="1217.88" y="1810" width="140" height="70" as="geometry" />
        </mxCell>
        <mxCell id="nKVaXOCoi4U3utTOkRe5-7" value="&quot;include&quot;" style="html=1;verticalAlign=bottom;endArrow=open;dashed=1;endSize=8;curved=0;rounded=0;entryX=0;entryY=0.5;entryDx=0;entryDy=0;exitX=1;exitY=1;exitDx=0;exitDy=0;" parent="1" source="nKVaXOCoi4U3utTOkRe5-3" target="nKVaXOCoi4U3utTOkRe5-6" edge="1">
          <mxGeometry relative="1" as="geometry">
            <mxPoint x="1266.88" y="1830" as="sourcePoint" />
            <mxPoint x="1186.88" y="1830" as="targetPoint" />
          </mxGeometry>
        </mxCell>
        <mxCell id="nKVaXOCoi4U3utTOkRe5-10" value="Искать продукт" style="ellipse;whiteSpace=wrap;html=1;" parent="1" vertex="1">
          <mxGeometry x="1217.88" y="1330" width="140" height="70" as="geometry" />
        </mxCell>
        <mxCell id="nKVaXOCoi4U3utTOkRe5-11" value="&quot;extend&quot;" style="html=1;verticalAlign=bottom;endArrow=open;dashed=1;endSize=8;curved=0;rounded=0;entryX=1;entryY=0.5;entryDx=0;entryDy=0;exitX=0;exitY=0.5;exitDx=0;exitDy=0;" parent="1" source="nKVaXOCoi4U3utTOkRe5-10" target="nKVaXOCoi4U3utTOkRe5-2" edge="1">
          <mxGeometry relative="1" as="geometry">
            <mxPoint x="1249.38" y="1404.5" as="sourcePoint" />
            <mxPoint x="1174.38" y="1404.5" as="targetPoint" />
          </mxGeometry>
        </mxCell>
        <mxCell id="nKVaXOCoi4U3utTOkRe5-12" value="Выбрать&lt;div&gt;&amp;nbsp;категорию/сортировку&lt;/div&gt;" style="ellipse;whiteSpace=wrap;html=1;" parent="1" vertex="1">
          <mxGeometry x="1217.88" y="1420" width="140" height="70" as="geometry" />
        </mxCell>
        <mxCell id="nKVaXOCoi4U3utTOkRe5-13" value="&quot;extend&quot;" style="html=1;verticalAlign=bottom;endArrow=open;dashed=1;endSize=8;curved=0;rounded=0;entryX=1;entryY=1;entryDx=0;entryDy=0;exitX=0;exitY=0.5;exitDx=0;exitDy=0;" parent="1" source="nKVaXOCoi4U3utTOkRe5-12" target="nKVaXOCoi4U3utTOkRe5-2" edge="1">
          <mxGeometry relative="1" as="geometry">
            <mxPoint x="1234.38" y="1580" as="sourcePoint" />
            <mxPoint x="1159.38" y="1580" as="targetPoint" />
          </mxGeometry>
        </mxCell>
        <mxCell id="nKVaXOCoi4U3utTOkRe5-14" value="CRUD корзина" style="ellipse;whiteSpace=wrap;html=1;" parent="1" vertex="1">
          <mxGeometry x="1217.88" y="1240" width="140" height="70" as="geometry" />
        </mxCell>
        <mxCell id="nKVaXOCoi4U3utTOkRe5-15" value="&quot;extend&quot;" style="html=1;verticalAlign=bottom;endArrow=open;dashed=1;endSize=8;curved=0;rounded=0;exitX=0;exitY=0.5;exitDx=0;exitDy=0;entryX=1;entryY=0;entryDx=0;entryDy=0;" parent="1" source="nKVaXOCoi4U3utTOkRe5-14" edge="1" target="nKVaXOCoi4U3utTOkRe5-2">
          <mxGeometry x="-0.4286" y="20" relative="1" as="geometry">
            <mxPoint x="1566.88" y="1375" as="sourcePoint" />
            <mxPoint x="1079.88" y="1450" as="targetPoint" />
            <mxPoint as="offset" />
          </mxGeometry>
        </mxCell>
        <mxCell id="nKVaXOCoi4U3utTOkRe5-18" value="&lt;span style=&quot;font-style: normal;&quot;&gt;Указать адрес &lt;br&gt;доставки&lt;/span&gt;" style="ellipse;whiteSpace=wrap;html=1;fontStyle=2" parent="1" vertex="1">
          <mxGeometry x="1217.88" y="1630" width="140" height="70" as="geometry" />
        </mxCell>
        <mxCell id="nKVaXOCoi4U3utTOkRe5-19" value="&quot;include&quot;" style="html=1;verticalAlign=bottom;endArrow=open;dashed=1;endSize=8;curved=0;rounded=0;entryX=0;entryY=0.5;entryDx=0;entryDy=0;exitX=1;exitY=0;exitDx=0;exitDy=0;" parent="1" source="nKVaXOCoi4U3utTOkRe5-3" target="nKVaXOCoi4U3utTOkRe5-18" edge="1">
          <mxGeometry relative="1" as="geometry">
            <mxPoint x="1326.88" y="1827.5" as="sourcePoint" />
            <mxPoint x="1481.88" y="1842.5" as="targetPoint" />
          </mxGeometry>
        </mxCell>
        <mxCell id="nKVaXOCoi4U3utTOkRe5-20" value="Выбрать способ получения" style="ellipse;whiteSpace=wrap;html=1;fontStyle=2" parent="1" vertex="1">
          <mxGeometry x="1216.88" y="2020" width="140" height="70" as="geometry" />
        </mxCell>
        <mxCell id="nKVaXOCoi4U3utTOkRe5-21" value="&quot;include&quot;" style="html=1;verticalAlign=bottom;endArrow=open;dashed=1;endSize=8;curved=0;rounded=0;entryX=0;entryY=0.5;entryDx=0;entryDy=0;exitX=0.5;exitY=1;exitDx=0;exitDy=0;" parent="1" source="nKVaXOCoi4U3utTOkRe5-3" target="nKVaXOCoi4U3utTOkRe5-20" edge="1">
          <mxGeometry relative="1" as="geometry">
            <mxPoint x="976.88" y="1820" as="sourcePoint" />
            <mxPoint x="1056.88" y="1900" as="targetPoint" />
          </mxGeometry>
        </mxCell>
        <mxCell id="nKVaXOCoi4U3utTOkRe5-22" value="Самовывоз" style="ellipse;whiteSpace=wrap;html=1;" parent="1" vertex="1">
          <mxGeometry x="1466.8300000000002" y="1970" width="140.05" height="70" as="geometry" />
        </mxCell>
        <mxCell id="nKVaXOCoi4U3utTOkRe5-23" value="Доставка" style="ellipse;whiteSpace=wrap;html=1;" parent="1" vertex="1">
          <mxGeometry x="1466.8300000000002" y="2080" width="140" height="70" as="geometry" />
        </mxCell>
        <mxCell id="nKVaXOCoi4U3utTOkRe5-24" value="" style="html=1;verticalAlign=bottom;endArrow=block;curved=0;rounded=0;endFill=0;endSize=12;entryX=1;entryY=0.5;entryDx=0;entryDy=0;" parent="1" target="nKVaXOCoi4U3utTOkRe5-20" edge="1">
          <mxGeometry width="80" relative="1" as="geometry">
            <mxPoint x="1396.88" y="2055" as="sourcePoint" />
            <mxPoint x="1286.88" y="1935" as="targetPoint" />
          </mxGeometry>
        </mxCell>
        <mxCell id="nKVaXOCoi4U3utTOkRe5-25" style="edgeStyle=orthogonalEdgeStyle;rounded=0;orthogonalLoop=1;jettySize=auto;html=1;entryX=0;entryY=0.5;entryDx=0;entryDy=0;endArrow=none;endFill=0;exitX=0;exitY=0.5;exitDx=0;exitDy=0;" parent="1" source="nKVaXOCoi4U3utTOkRe5-23" target="nKVaXOCoi4U3utTOkRe5-22" edge="1">
          <mxGeometry relative="1" as="geometry">
            <mxPoint x="1856.8300000000002" y="1950" as="sourcePoint" />
            <mxPoint x="1836.8300000000002" y="1855" as="targetPoint" />
            <Array as="points">
              <mxPoint x="1396.8300000000002" y="2120" />
              <mxPoint x="1396.8300000000002" y="2000" />
            </Array>
          </mxGeometry>
        </mxCell>
        <mxCell id="nKVaXOCoi4U3utTOkRe5-26" value="Оставить отзыв" style="ellipse;whiteSpace=wrap;html=1;" parent="1" vertex="1">
          <mxGeometry x="999.38" y="2050" width="130" height="70" as="geometry" />
        </mxCell>
        <mxCell id="nKVaXOCoi4U3utTOkRe5-28" value="Оплатить банковской картой" style="ellipse;whiteSpace=wrap;html=1;" parent="1" vertex="1">
          <mxGeometry x="1460.88" y="1750" width="140" height="70" as="geometry" />
        </mxCell>
        <mxCell id="nKVaXOCoi4U3utTOkRe5-29" value="Оплатить наличными" style="ellipse;whiteSpace=wrap;html=1;" parent="1" vertex="1">
          <mxGeometry x="1461.88" y="1870" width="139" height="70" as="geometry" />
        </mxCell>
        <mxCell id="nKVaXOCoi4U3utTOkRe5-30" value="" style="html=1;verticalAlign=bottom;endArrow=block;curved=0;rounded=0;endFill=0;endSize=12;entryX=1;entryY=0.5;entryDx=0;entryDy=0;" parent="1" edge="1">
          <mxGeometry width="80" relative="1" as="geometry">
            <mxPoint x="1406.88" y="1845" as="sourcePoint" />
            <mxPoint x="1356.88" y="1845" as="targetPoint" />
          </mxGeometry>
        </mxCell>
        <mxCell id="nKVaXOCoi4U3utTOkRe5-31" style="edgeStyle=orthogonalEdgeStyle;rounded=0;orthogonalLoop=1;jettySize=auto;html=1;entryX=0;entryY=0.5;entryDx=0;entryDy=0;endArrow=none;endFill=0;exitX=0;exitY=0.5;exitDx=0;exitDy=0;" parent="1" source="nKVaXOCoi4U3utTOkRe5-29" target="nKVaXOCoi4U3utTOkRe5-28" edge="1">
          <mxGeometry relative="1" as="geometry">
            <mxPoint x="1866.8400000000001" y="1735" as="sourcePoint" />
            <mxPoint x="1846.8400000000001" y="1640" as="targetPoint" />
            <Array as="points">
              <mxPoint x="1406.8400000000001" y="1905" />
              <mxPoint x="1406.8400000000001" y="1785" />
            </Array>
          </mxGeometry>
        </mxCell>
        <mxCell id="nKVaXOCoi4U3utTOkRe5-33" value="Клиент" style="shape=umlActor;verticalLabelPosition=bottom;verticalAlign=top;html=1;outlineConnect=0;rotation=0;" parent="1" vertex="1">
          <mxGeometry x="886.88" y="1725" width="30" height="60" as="geometry" />
        </mxCell>
        <mxCell id="nKVaXOCoi4U3utTOkRe5-35" value="" style="endArrow=none;html=1;rounded=0;entryX=0;entryY=1;entryDx=0;entryDy=0;" parent="1" source="nKVaXOCoi4U3utTOkRe5-33" target="nKVaXOCoi4U3utTOkRe5-2" edge="1">
          <mxGeometry width="50" height="50" relative="1" as="geometry">
            <mxPoint x="906.88" y="1510" as="sourcePoint" />
            <mxPoint x="1486.88" y="1710" as="targetPoint" />
          </mxGeometry>
        </mxCell>
        <mxCell id="nKVaXOCoi4U3utTOkRe5-36" value="" style="endArrow=none;html=1;rounded=0;entryX=0;entryY=0.5;entryDx=0;entryDy=0;" parent="1" source="nKVaXOCoi4U3utTOkRe5-33" target="nKVaXOCoi4U3utTOkRe5-3" edge="1">
          <mxGeometry width="50" height="50" relative="1" as="geometry">
            <mxPoint x="886.88" y="1650" as="sourcePoint" />
            <mxPoint x="1044.88" y="1520" as="targetPoint" />
          </mxGeometry>
        </mxCell>
        <mxCell id="nKVaXOCoi4U3utTOkRe5-38" value="CRUD&lt;br&gt;продукты" style="ellipse;whiteSpace=wrap;html=1;" parent="1" vertex="1">
          <mxGeometry x="996.88" y="2200" width="127.5" height="68" as="geometry" />
        </mxCell>
        <mxCell id="nKVaXOCoi4U3utTOkRe5-39" value="CRUD&lt;br&gt;категории" style="ellipse;whiteSpace=wrap;html=1;" parent="1" vertex="1">
          <mxGeometry x="995.63" y="2290" width="130" height="70" as="geometry" />
        </mxCell>
        <mxCell id="nKVaXOCoi4U3utTOkRe5-40" value="CRUD&lt;br&gt;сотрудники" style="ellipse;whiteSpace=wrap;html=1;" parent="1" vertex="1">
          <mxGeometry x="993.13" y="2380" width="130" height="70" as="geometry" />
        </mxCell>
        <mxCell id="nKVaXOCoi4U3utTOkRe5-44" value="Курьер" style="shape=umlActor;verticalLabelPosition=bottom;verticalAlign=top;html=1;outlineConnect=0;" parent="1" vertex="1">
          <mxGeometry x="880" y="2563.5" width="30" height="60" as="geometry" />
        </mxCell>
        <mxCell id="nKVaXOCoi4U3utTOkRe5-45" value="Просмотреть&lt;br&gt;заказ" style="ellipse;whiteSpace=wrap;html=1;" parent="1" vertex="1">
          <mxGeometry x="991.88" y="2560" width="133.75" height="67" as="geometry" />
        </mxCell>
        <mxCell id="nKVaXOCoi4U3utTOkRe5-46" value="" style="endArrow=none;html=1;rounded=0;exitX=0;exitY=0.5;exitDx=0;exitDy=0;" parent="1" source="nKVaXOCoi4U3utTOkRe5-45" target="nKVaXOCoi4U3utTOkRe5-44" edge="1">
          <mxGeometry width="50" height="50" relative="1" as="geometry">
            <mxPoint x="1210" y="2533.5" as="sourcePoint" />
            <mxPoint x="927.5" y="2526.5" as="targetPoint" />
          </mxGeometry>
        </mxCell>
        <mxCell id="nKVaXOCoi4U3utTOkRe5-47" value="CRUD&lt;br&gt;заказы" style="ellipse;whiteSpace=wrap;html=1;" parent="1" vertex="1">
          <mxGeometry x="994.38" y="2470" width="132.5" height="70" as="geometry" />
        </mxCell>
        <mxCell id="WLJyWYhtXDbgFlrZbiek-1" value="&lt;span style=&quot;font-style: normal;&quot;&gt;Выбрать дату&lt;br&gt;доставки&lt;/span&gt;" style="ellipse;whiteSpace=wrap;html=1;fontStyle=2" parent="1" vertex="1">
          <mxGeometry x="1217.88" y="1720" width="140" height="70" as="geometry" />
        </mxCell>
        <mxCell id="WLJyWYhtXDbgFlrZbiek-2" value="&quot;include&quot;" style="html=1;verticalAlign=bottom;endArrow=open;dashed=1;endSize=8;curved=0;rounded=0;entryX=0;entryY=0.5;entryDx=0;entryDy=0;exitX=1;exitY=0.5;exitDx=0;exitDy=0;" parent="1" source="nKVaXOCoi4U3utTOkRe5-3" target="WLJyWYhtXDbgFlrZbiek-1" edge="1">
          <mxGeometry relative="1" as="geometry">
            <mxPoint x="1296.88" y="1670" as="sourcePoint" />
            <mxPoint x="1376.88" y="1750" as="targetPoint" />
          </mxGeometry>
        </mxCell>
        <mxCell id="e55MAq1puEJmX3Qkhd2a-3" value="" style="endArrow=none;html=1;rounded=0;entryX=0;entryY=0.5;entryDx=0;entryDy=0;" edge="1" parent="1" source="nKVaXOCoi4U3utTOkRe5-33" target="nKVaXOCoi4U3utTOkRe5-26">
          <mxGeometry width="50" height="50" relative="1" as="geometry">
            <mxPoint x="861.88" y="1720" as="sourcePoint" />
            <mxPoint x="976.88" y="1866" as="targetPoint" />
          </mxGeometry>
        </mxCell>
        <mxCell id="e55MAq1puEJmX3Qkhd2a-4" value="" style="endArrow=none;html=1;rounded=0;exitX=0;exitY=0.5;exitDx=0;exitDy=0;" edge="1" parent="1" source="nKVaXOCoi4U3utTOkRe5-38">
          <mxGeometry width="50" height="50" relative="1" as="geometry">
            <mxPoint x="885.63" y="2158" as="sourcePoint" />
            <mxPoint x="915.63" y="2320" as="targetPoint" />
          </mxGeometry>
        </mxCell>
        <mxCell id="e55MAq1puEJmX3Qkhd2a-5" value="Менеджер" style="shape=umlActor;verticalLabelPosition=bottom;verticalAlign=top;html=1;outlineConnect=0;rotation=0;" vertex="1" parent="1">
          <mxGeometry x="885.63" y="2330" width="30" height="60" as="geometry" />
        </mxCell>
        <mxCell id="e55MAq1puEJmX3Qkhd2a-8" value="" style="endArrow=none;html=1;rounded=0;exitX=0;exitY=0.5;exitDx=0;exitDy=0;" edge="1" parent="1" source="nKVaXOCoi4U3utTOkRe5-39" target="e55MAq1puEJmX3Qkhd2a-5">
          <mxGeometry width="50" height="50" relative="1" as="geometry">
            <mxPoint x="1008.63" y="2354" as="sourcePoint" />
            <mxPoint x="925.63" y="2460" as="targetPoint" />
          </mxGeometry>
        </mxCell>
        <mxCell id="e55MAq1puEJmX3Qkhd2a-9" value="" style="endArrow=none;html=1;rounded=0;exitX=0;exitY=0.5;exitDx=0;exitDy=0;" edge="1" parent="1" source="nKVaXOCoi4U3utTOkRe5-40" target="e55MAq1puEJmX3Qkhd2a-5">
          <mxGeometry width="50" height="50" relative="1" as="geometry">
            <mxPoint x="975.63" y="2480" as="sourcePoint" />
            <mxPoint x="895.63" y="2509" as="targetPoint" />
          </mxGeometry>
        </mxCell>
        <mxCell id="e55MAq1puEJmX3Qkhd2a-10" value="" style="endArrow=none;html=1;rounded=0;exitX=0;exitY=0.5;exitDx=0;exitDy=0;" edge="1" parent="1" source="nKVaXOCoi4U3utTOkRe5-47" target="e55MAq1puEJmX3Qkhd2a-5">
          <mxGeometry width="50" height="50" relative="1" as="geometry">
            <mxPoint x="963.63" y="2486" as="sourcePoint" />
            <mxPoint x="885.63" y="2440" as="targetPoint" />
          </mxGeometry>
        </mxCell>
      </root>
    </mxGraphModel>
  </diagram>
</mxfile>
